PathFileType	4	(X/Y/Z)	C:/Users/beibeiliu/ov580/test_trc/User3\sequence.9_training_dense_left.trc
DataRate	CameraRate	NumFrames	NumMarkers	Units	OrigDataRate	OrigDataStartFrame	OrigNumFrames
120	120	11	19	mm	120	77	153
Frame#	Time	ThumbCMC			ThumbMCP			ThumbIP			ThumbTip			IndexMCP			IndexPIP			IndexTip			MiddleMCP			MiddlePIP			MiddleTip			RingMCP			RingPIP			RingTip			PinkyMCP			PinkyPIP			PinkyTip			BackHand1			BackHand2			BackHand3	
		X0	Y0	Z0	X1	Y1	Z1	X2	Y2	Z2	X3	Y3	Z3	X4	Y4	Z4	X5	Y5	Z5	X6	Y6	Z6	X7	Y7	Z7	X8	Y8	Z8	X9	Y9	Z9	X10	Y10	Z10	X11	Y11	Z11	X12	Y12	Z12	X13	Y13	Z13	X14	Y14	Z14	X15	Y15	Z15	X16	Y16	Z16	X17	Y17	Z17	X18	Y18	Z18	
76	0.633333	-161.623	-37.0262	26.0784	-146.999	-47.6103	3.66442	-138.201	-54.8452	-23.4936	-127.292	-63.2655	-43.2946	-190.98	-12.2224	-35.9225	-187.067	-12.4561	-68.2886	-186.262	-26.4949	-91.6294	-219.1	-13.746	-41.4442	-222.59	-19.5091	-71.1507	-215.096	-41.8674	-96.6565	-232.278	-38.2413	-32.6626	-232.04	-65.5562	-53.5339	-217.103	-89.1971	-40.3127	-244.788	-60.8432	-18.5427	-232.344	-84.1462	-24.9549	-210.051	-86.5174	1.52029	-229.076	-27.3629	23.3947	-228.372	-29.6917	50.5022	-199.533	-16.4222	28.6606	
77	0.641667	-165.257	-37.8169	29.0464	-150.038	-47.3978	2.38834	-134.846	-55.1171	-22.7041	-128.533	-63.3156	-41.8078	-194.489	-12.6298	-37.0336	-188.951	-12.606	-68.9222	-186.568	-26.9984	-94.2601	-217.35	-13.5283	-40.0261	-219.188	-18.2353	-69.5676	-217.247	-43.5954	-95.457	-233.792	-40.0889	-34.0748	-231.286	-66.4801	-52.4136	-214.221	-90.8139	-38.1726	-242.412	-59.8003	-20.4086	-228.687	-84.0931	-24.7989	-211.587	-85.1394	-2.93873	-232.101	-24.5778	21.7562	-226.646	-30.5494	51.8959	-200.083	-16.3908	29.0394	
78	0.65	-161.043	-37.3757	29.8115	-149.305	-47.2348	0.892135	-137.056	-55.402	-22.2929	-132.489	-64.0399	-43.3469	-193.445	-13.0082	-38.9515	-187.676	-12.2009	-66.4994	-185.445	-25.6962	-90.9568	-221.113	-15.9055	-36.9723	-219.919	-20.6987	-73.2695	-214.022	-43.2496	-96.5773	-233.489	-38.6181	-30.7432	-232.869	-65.0127	-52.8397	-216.673	-88.5549	-41.8026	-242.917	-58.1263	-15.6831	-228.66	-83.9065	-25.373	-211.557	-88.2506	-3.20784	-227.832	-26.9009	23.8031	-225.188	-30.736	50.5599	-195.723	-17.9053	30.0402	
79	0.658333	-162.946	-38.2793	28.6026	-148.191	-47.7964	2.79951	-133.838	-55.032	-22.9337	-129.979	-63.9218	-43.6635	-194.42	-13.7136	-36.6496	-189.851	-15.2925	-70.145	-184.002	-26.3677	-90.7366	-220.482	-15.3175	-38.392	-218.576	-17.9091	-68.7271	-216.632	-42.4417	-94.4911	-233.049	-36.6704	-35.0514	-233.034	-60.5012	-53.5385	-215.866	-85.6722	-46.0818	-244.122	-55.8091	-17.3281	-236.471	-79.6214	-30.4294	-215.53	-89.7929	-11.7585	-229.462	-28.0217	25.0377	-224.403	-28.1735	50.7712	-196.865	-16.1189	30.6982	
80	0.666667	-163.692	-38.0019	29.1464	-145.672	-46.975	5.38638	-138.6	-53.2381	-23.7641	-134.462	-63.2131	-43.4051	-192.626	-10.0392	-39.6997	-188.626	-15.2714	-70.0883	-179.933	-32.3065	-90.6802	-218.831	-12.2821	-37.6127	-219.877	-15.1452	-70.2778	-213.32	-37.0246	-94.6657	-230.47	-30.4534	-30.4334	-230.94	-45.7236	-56.4865	-214.871	-77.3436	-55.5611	-248.042	-49.8798	-18.6252	-239.739	-64.7966	-36.7686	-221.54	-87.3512	-28.4276	-231.477	-24.5935	21.4409	-221.273	-29.5228	51.7829	-195.249	-16.0727	32.8996	
81	0.675	-157.586	-36.8147	30.2479	-144.859	-45.7183	1.98259	-137.379	-51.5136	-26.1777	-138.229	-61.9202	-46.7533	-186.961	-9.79836	-38.0004	-184.493	-16.8381	-67.5567	-178.719	-41.5698	-86.2364	-210.696	-5.91888	-38.4517	-210.584	-6.67847	-70.1629	-211.741	-28.9284	-97.2787	-229.093	-22.509	-29.999	-232.904	-30.157	-58.6125	-219.003	-59.8087	-74.2148	-241.341	-36.8269	-19.2338	-243.101	-45.2637	-42.8043	-232.491	-72.6189	-52.3961	-227.901	-23.6517	23.0896	-224.462	-30.2433	50.2155	-193.41	-15.5677	32.1672	
82	0.683333	-157.33	-35.6273	28.2804	-145.626	-44.8112	2.75761	-140.956	-50.8877	-30.597	-147.354	-57.9103	-51.7712	-179.594	-7.1948	-41.2936	-174.546	-20.6674	-68.5208	-173.293	-48.6388	-79.7564	-205.163	-0.830902	-37.586	-203.921	-1.22359	-73.9326	-203.187	-19.2319	-101.925	-223.451	-12.1314	-33.1012	-228.448	-14.9585	-60.9977	-220.017	-31.8163	-86.3834	-237.96	-29.2623	-16.8839	-244.165	-27.6929	-43.9311	-240.487	-42.9248	-65.4775	-221.043	-15.7742	17.5659	-219.4	-23.6264	47.7518	-191.212	-11.7708	33.4145	
83	0.691667	-158.579	-36.7027	26.1443	-143.032	-45.4804	-4.48366	-143.055	-49.9214	-34.3329	-149.507	-56.905	-58.5108	-172.884	-4.52078	-44.1131	-170.241	-21.7746	-71.811	-168.585	-50.45	-78.9918	-200.112	8.67967	-46.2111	-198.875	7.50295	-75.9788	-196.813	-5.02656	-104.813	-217.13	-1.46329	-36.3387	-221.354	1.3058	-63.9687	-221.267	-7.92318	-93.8601	-236.875	-16.9336	-23.3828	-243.335	-12.627	-46.3936	-240.274	-15.2822	-73.0522	-219.95	-9.21301	12.9507	-220.501	-18.5657	42.3599	-186.189	-6.83298	27.3894	
84	0.7	-156.862	-29.5895	15.9156	-144.306	-41.0994	-13.2313	-139.327	-47.6565	-42.8122	-150.746	-53.923	-64.4747	-170.11	1.88792	-50.381	-169.796	-20.5945	-78.2549	-167.524	-46.7496	-82.364	-191.618	16.5079	-53.2924	-193.285	17.8486	-80.1602	-189.144	8.15273	-113.105	-215.348	10.1685	-44.3963	-215.389	14.4118	-73.1462	-216.265	10.9019	-100.56	-232.246	-2.01473	-32.0872	-241.732	1.53657	-52.7352	-241.267	4.82548	-76.2731	-218.605	3.46586	6.64452	-217.302	-9.12846	37.1885	-182.829	0.753033	21.0795	
85	0.708333	-156.753	-24.4327	11.2852	-147.606	-33.8985	-19.4746	-145.283	-40.8095	-47.4395	-153.14	-46.0716	-71.8209	-169.949	8.30723	-58.7131	-168.816	-9.61215	-81.4595	-171.481	-40.5387	-86.6453	-188.922	26.4273	-56.4854	-186.785	27.3976	-88.8148	-185.78	19.9744	-117.204	-214.382	22.0431	-50.2077	-211.197	27.1249	-76.6412	-216.526	24.6021	-106.05	-235.412	10.6602	-39.6965	-238.763	13.497	-58.6239	-244.74	17.6181	-85.3175	-216.503	11.5941	2.44209	-214.548	3.47739	27.8927	-180.667	7.19037	17.416	
86	0.716667	-159.638	-21.6676	5.79903	-148.185	-32.5048	-25.81	-144.691	-40.1402	-53.3097	-159.064	-41.851	-80.7252	-171.494	12.1677	-62.4593	-168.516	-9.26226	-88.8784	-176.639	-40.2911	-90.8497	-192.102	31.716	-59.9659	-187.71	33.5478	-89.484	-189.475	27.0675	-126.133	-210.703	28.1771	-53.9818	-213.642	34.7652	-82.9865	-216.439	33.2811	-106.506	-231.281	17.4405	-41.9641	-235.893	22.9137	-65.7303	-245.603	24.8675	-86.568	-214.554	16.3693	-0.632627	-211.995	10.7038	23.7004	-178.158	12.5734	11.2555	
